<svg id="Capa_1" enable-background="new 0 0 512 512" height="512" viewBox="0 0 512 512" width="512" xmlns="http://www.w3.org/2000/svg"><g><path d="m484.561 388.092-64.117 123.908h91.556v-56.884c0-26.11-10.472-49.771-27.439-67.024z" fill="#96c8ef"/><path d="m0 455.116v56.884h91.556l-64.117-123.908c-16.967 17.253-27.439 40.914-27.439 67.024z" fill="#beebfa"/><g><path d="m92.787 359.555c-25.568.74-48.616 11.522-65.348 28.536 8.261 47.946 31.235 90.856 64.117 123.909h164.444l10-79.667-10-62.819z" fill="#96c8ef"/><path d="m484.561 388.092c-16.732-17.014-39.78-27.797-65.348-28.536l-163.213 9.958v142.486h164.444c32.882-33.053 55.856-75.963 64.117-123.908z" fill="#5aaae7"/></g><g><path d="m92.785 359.514c5.707 85.17 76.6 152.486 163.215 152.486l10-79-10-63.486-95.602-10z" fill="#beebfa"/><path d="m256 369.514v142.486c86.615 0 157.508-67.316 163.214-152.486h-67.613z" fill="#96c8ef"/></g><g><path d="m160.398 359.514c0 52.799 42.802 95.602 95.602 95.602l10-47.801-10-47.801z" fill="#96c8ef"/><path d="m256 359.514v95.602c52.799 0 95.602-42.802 95.602-95.602z" fill="#5aaae7"/></g><g><path d="m256 0c-80.998 0-146.66 65.662-146.66 146.66v98.062c0 80.998 65.662 146.66 146.66 146.66l20-195.691z" fill="#beebfa"/><path d="m256 0v391.382c80.998 0 146.66-65.662 146.66-146.66v-98.062c0-80.998-65.662-146.66-146.66-146.66z" fill="#96c8ef"/></g><g><path d="m109.34 196.419c0 70.729 65.662 128.066 146.66 128.066l20-128.794-20-127.337c-80.998 0-146.66 57.337-146.66 128.065z" fill="#96c8ef"/><path d="m256 68.354v256.132c80.998 0 146.66-57.337 146.66-128.066s-65.662-128.066-146.66-128.066z" fill="#5aaae7"/></g><g><path d="m177.942 196.419c0 33.334 34.948 60.356 78.058 60.356l10-60.356-10-60.356c-43.11.001-78.058 27.023-78.058 60.356z" fill="#beebfa"/><path d="m256 136.064v120.712c43.11 0 78.058-27.022 78.058-60.356s-34.948-60.356-78.058-60.356z" fill="#96c8ef"/></g><g><path d="m241 181.419v30h15l10-15.728-10-14.272z" fill="#96c8ef"/><path d="m256 181.419h15v30h-15z" fill="#5aaae7"/></g></g></svg>