<svg id="Capa_1" enable-background="new 0 0 512 512" height="512" viewBox="0 0 512 512" width="512" xmlns="http://www.w3.org/2000/svg"><g><path d="m512 235.165c0 46.64-37.81 84.45-84.45 84.45h-343.1c-46.64 0-84.45-37.81-84.45-84.45 0-36.9 23.67-68.25 56.66-79.74-2.71-41.5 30.2-75.99 71.1-75.99 11.02 0 21.45 2.51 30.76 6.97 16.4-37.58 53.87-63.84 97.48-63.84s81.08 26.26 97.48 63.84c9.31-4.46 19.74-6.97 30.76-6.97 40.99 0 73.81 34.58 71.11 75.99 32.98 11.49 56.65 42.84 56.65 79.74z" fill="#a8ebfa"/><path d="m512 235.165c0 46.64-37.81 84.45-84.45 84.45h-171.55v-297.05c43.61 0 81.08 26.26 97.48 63.84 9.31-4.46 19.74-6.97 30.76-6.97 40.99 0 73.81 34.58 71.11 75.99 32.98 11.49 56.65 42.84 56.65 79.74z" fill="#7dd5f4"/><path d="m221.888 409.025-.01-.01" fill="none"/><path d="m192.678 387.815-21.21-21.21-21.22-21.22-67.23 67.22c-17.537 17.558-17.615 46.004.01 63.65 17.576 17.535 45.973 17.616 63.64-.01l66.96-66.96c.09-.09.18-.18.25-.27z" fill="#5e54ac"/><circle cx="256" cy="304.555" fill="#f0f7ff" r="107.53"/><path d="m363.53 304.555c0 59.3-48.24 107.53-107.53 107.53v-215.06c59.29 0 107.53 48.24 107.53 107.53z" fill="#dfe7f4"/><path d="m256 181.745c-67.72 0-122.82 55.09-122.82 122.81s55.1 122.82 122.82 122.82 122.82-55.1 122.82-122.82-55.1-122.81-122.82-122.81zm0 215.63c-51.18 0-92.82-41.64-92.82-92.82s41.64-92.81 92.82-92.81 92.82 41.63 92.82 92.81-41.64 92.82-92.82 92.82z" fill="#4793ff"/><path d="m378.82 304.555c0 67.72-55.1 122.82-122.82 122.82v-30c51.18 0 92.82-41.64 92.82-92.82s-41.64-92.81-92.82-92.81v-30c67.72 0 122.82 55.09 122.82 122.81z" fill="#525cdd"/></g></svg>